<svg id="Layer_1" data-name="Layer 1" xmlns="http://www.w3.org/2000/svg" width="496.18" height="407" viewBox="0 0 496.18 407">
  <defs>
    <style>
      .cls-1 {
        fill: #505050;
      }

      .cls-2 {
        fill: #555;
      }

      .cls-3 {
        fill: #3d3d3b;
      }

      .cls-4 {
        fill: #e6e6e6;
      }

      .cls-5 {
        fill: #d3d3d3;
      }

      .cls-6 {
        fill: #383838;
      }
    </style>
  </defs>
  <g>
    <g>
      <rect class="cls-1" x="13.63" y="21.96" width="469.38" height="261.26"/>
      <polygon class="cls-2" points="13.63 253.54 339.09 21.96 13.63 21.47 13.63 253.54"/>
    </g>
    <path class="cls-3" d="M731.93,353H256.25A10.25,10.25,0,0,0,246,363.25V654.31H742.18V363.25A10.25,10.25,0,0,0,731.93,353Zm-5.12,281H261.37V375H726.81Z" transform="translate(-246 -353)"/>
    <polygon class="cls-4" points="166.86 399.58 166.86 407 333.93 407 333.93 399.58 311.76 397.38 301.09 349.08 197.56 349.08 186.62 397.38 166.86 399.58"/>
    <polygon class="cls-5" points="196.05 355.77 302.57 355.77 300.78 344.69 197.59 344.69 196.05 355.77"/>
    <path class="cls-4" d="M742.18,654.31v37.52a10.25,10.25,0,0,1-10.25,10.25H256.25A10.25,10.25,0,0,1,246,691.83V654.31Z" transform="translate(-246 -353)"/>
    <circle class="cls-6" cx="249.19" cy="323.84" r="14.27"/>
  </g>
</svg>
