<svg id="Layer_1" data-name="Layer 1" xmlns="http://www.w3.org/2000/svg" width="516.11" height="538.26" viewBox="0 0 516.11 538.26">
  <defs>
    <style>
      .cls-1 {
        fill: #fff;
      }

      .cls-2 {
        fill: #615d77;
      }

      .cls-3 {
        fill: #3f444c;
      }

      .cls-4 {
        fill: #f16228;
      }

      .cls-5 {
        fill: #f6b979;
      }

      .cls-6 {
        fill: #b0bd46;
      }

      .cls-7 {
        fill: #64647a;
      }

      .cls-8 {
        fill: #209cd3;
      }

      .cls-9 {
        fill: #dae9f2;
      }

      .cls-10 {
        fill: #8fc3d5;
      }
    </style>
  </defs>
  <g>
    <g>
      <path class="cls-1" d="M283.17,693.23a20.6,20.6,0,0,1-20.57-20.57V305.89a20.6,20.6,0,0,1,20.57-20.57H725.9a20.6,20.6,0,0,1,20.57,20.57V672.66a20.6,20.6,0,0,1-20.57,20.57Z" transform="translate(-260.01 -282.74)"/>
      <path class="cls-2" d="M725.9,287.91a18,18,0,0,1,18,18V672.66a18,18,0,0,1-18,18H283.17a18,18,0,0,1-18-18V305.89a18,18,0,0,1,18-18H725.9m0-5.17H283.17A23.16,23.16,0,0,0,260,305.89V672.66a23.15,23.15,0,0,0,23.16,23.15H725.9A23.14,23.14,0,0,0,749,672.66V305.89a23.14,23.14,0,0,0-23.14-23.15Z" transform="translate(-260.01 -282.74)"/>
    </g>
    <path class="cls-3" d="M725.9,282.74H283.17A23.16,23.16,0,0,0,260,305.89v43.85H749V305.89A23.14,23.14,0,0,0,725.9,282.74Z" transform="translate(-260.01 -282.74)"/>
    <g>
      <path class="cls-4" d="M307.36,317a12.92,12.92,0,1,1-12.92-12.9A12.92,12.92,0,0,1,307.36,317Z" transform="translate(-260.01 -282.74)"/>
      <path class="cls-5" d="M343.51,317a12.92,12.92,0,1,1-12.91-12.9A12.92,12.92,0,0,1,343.51,317Z" transform="translate(-260.01 -282.74)"/>
      <path class="cls-6" d="M379.65,317a12.91,12.91,0,1,1-12.91-12.9A12.91,12.91,0,0,1,379.65,317Z" transform="translate(-260.01 -282.74)"/>
    </g>
    <rect class="cls-1" x="155.78" y="22.6" width="299.52" height="23.24"/>
    <rect class="cls-3" x="31.11" y="102.72" width="106.27" height="9.58"/>
    <g>
      <rect class="cls-3" x="31.11" y="311.3" width="114.01" height="9.58"/>
      <rect class="cls-7" x="31.11" y="339.28" width="97.27" height="9.58"/>
      <rect class="cls-7" x="31.11" y="367.26" width="97.27" height="9.58"/>
    </g>
    <g>
      <rect class="cls-3" x="182.09" y="311.3" width="114.02" height="9.58"/>
      <rect class="cls-7" x="182.09" y="339.28" width="97.28" height="9.58"/>
      <rect class="cls-7" x="182.09" y="367.26" width="97.28" height="9.58"/>
    </g>
    <g>
      <rect class="cls-3" x="335.53" y="311.3" width="114.02" height="9.58"/>
      <rect class="cls-7" x="335.53" y="339.28" width="97.28" height="9.58"/>
      <rect class="cls-7" x="335.53" y="367.26" width="97.28" height="9.58"/>
    </g>
    <rect class="cls-8" x="390.42" y="102.72" width="67.51" height="9.58"/>
    <rect class="cls-8" x="305.21" y="102.72" width="67.52" height="9.58"/>
    <rect class="cls-8" x="220" y="102.72" width="67.52" height="9.58"/>
    <g>
      <rect class="cls-9" x="31.11" y="148.66" width="117.8" height="127.86"/>
      <path class="cls-10" d="M411.37,561.72H288.67V429h122.7V561.72Zm-117.8-4.92h112.9V433.85H293.57V556.8Z" transform="translate(-260.01 -282.74)"/>
    </g>
    <g>
      <rect class="cls-9" x="184.55" y="148.66" width="117.8" height="127.86"/>
      <path class="cls-10" d="M564.81,561.72H442.11V429h122.7V561.72ZM447,556.8h112.9V433.85H447V556.8Z" transform="translate(-260.01 -282.74)"/>
    </g>
    <g>
      <rect class="cls-9" x="337.98" y="148.66" width="117.8" height="127.86"/>
      <path class="cls-10" d="M718.25,561.72H595.54V429H718.25V561.72Zm-117.8-4.92H713.34V433.85H600.45V556.8Z" transform="translate(-260.01 -282.74)"/>
    </g>
  </g>
  <g>
    <g>
      <path class="cls-1" d="M460.19,818.42a20.6,20.6,0,0,1-20.57-20.57V465.11a20.6,20.6,0,0,1,20.57-20.57H753a20.6,20.6,0,0,1,20.58,20.57V797.85A20.59,20.59,0,0,1,753,818.42Z" transform="translate(-260.01 -282.74)"/>
      <path class="cls-2" d="M753,447.13a18,18,0,0,1,18,18V797.85a18,18,0,0,1-18,18H460.19a18,18,0,0,1-18-18V465.11a18,18,0,0,1,18-18H753m0-5.17H460.19A23.16,23.16,0,0,0,437,465.11V797.85A23.15,23.15,0,0,0,460.19,821H753a23.14,23.14,0,0,0,23.15-23.15V465.11A23.14,23.14,0,0,0,753,442Z" transform="translate(-260.01 -282.74)"/>
    </g>
    <path class="cls-3" d="M753,442H460.19A23.16,23.16,0,0,0,437,465.11V509H776.12V465.11A23.14,23.14,0,0,0,753,442Z" transform="translate(-260.01 -282.74)"/>
    <g>
      <path class="cls-4" d="M484.39,476.18a12.92,12.92,0,1,1-12.92-12.9A12.92,12.92,0,0,1,484.39,476.18Z" transform="translate(-260.01 -282.74)"/>
      <path class="cls-5" d="M520.53,476.18a12.92,12.92,0,1,1-12.9-12.9A12.91,12.91,0,0,1,520.53,476.18Z" transform="translate(-260.01 -282.74)"/>
      <path class="cls-6" d="M556.68,476.18a12.91,12.91,0,1,1-12.92-12.9A12.91,12.91,0,0,1,556.68,476.18Z" transform="translate(-260.01 -282.74)"/>
    </g>
    <rect class="cls-1" x="332.8" y="181.82" width="149.58" height="23.24"/>
    <rect class="cls-3" x="208.13" y="261.94" width="106.27" height="9.57"/>
    <g>
      <rect class="cls-3" x="208.13" y="462.96" width="114.02" height="9.58"/>
      <rect class="cls-7" x="208.13" y="490.94" width="97.28" height="9.58"/>
    </g>
    <g>
      <rect class="cls-3" x="365.35" y="462.96" width="114.02" height="9.58"/>
      <rect class="cls-7" x="365.35" y="490.94" width="97.28" height="9.58"/>
    </g>
    <rect class="cls-8" x="417.77" y="261.94" width="67.52" height="9.57"/>
    <g>
      <rect class="cls-9" x="210.95" y="307" width="117.8" height="127.86"/>
      <path class="cls-10" d="M591.22,720.06H468.51V587.29H591.22V720.06Zm-117.8-4.91H586.31v-123H473.42v123Z" transform="translate(-260.01 -282.74)"/>
    </g>
    <g>
      <rect class="cls-9" x="364.39" y="307" width="117.81" height="127.86"/>
      <path class="cls-10" d="M744.65,720.06H622V587.29h122.7V720.06Zm-117.8-4.91h112.9v-123H626.85v123Z" transform="translate(-260.01 -282.74)"/>
    </g>
  </g>
</svg>
